<?xml version="1.0" standalone="no"?>
<!DOCTYPE svg PUBLIC "-//W3C//DTD SVG 20010904//EN"
 "http://www.w3.org/TR/2001/REC-SVG-20010904/DTD/svg10.dtd">
<svg version="1.0" xmlns="http://www.w3.org/2000/svg"
 width="1230.000000pt" height="393.000000pt" viewBox="0 0 1230.000000 393.000000"
 preserveAspectRatio="xMidYMid meet">

<g transform="translate(0.000000,393.000000) scale(0.100000,-0.100000)"
fill="#000000" stroke="none">
<path d="M1299 3879 c-80 -11 -164 -43 -228 -85 -29 -20 -206 -184 -391 -365
-185 -181 -349 -338 -363 -349 -38 -30 -109 -125 -141 -188 -48 -95 -85 -224
-107 -376 -28 -197 -24 -481 10 -650 74 -363 250 -697 539 -1022 179 -201 450
-421 748 -607 l156 -98 97 57 c801 475 1289 1115 1372 1797 15 128 6 452 -16
571 -37 203 -111 371 -205 466 -140 143 -351 160 -523 44 -77 -53 -68 -55
-149 38 -46 53 -50 61 -40 83 11 24 16 25 95 25 46 0 87 -3 90 -6 3 -4 2 -15
-4 -25 -9 -17 -6 -19 28 -19 l38 1 68 147 c37 81 67 152 67 158 0 6 -58 52
-129 102 l-129 92 -116 0 c-132 0 -143 4 -275 92 -161 109 -309 144 -492 117z
m304 -93 c38 -14 113 -55 166 -91 54 -35 110 -69 125 -75 15 -5 79 -10 143
-10 l115 0 104 -72 c57 -40 103 -76 104 -79 0 -3 -18 -45 -41 -93 l-41 -88
-113 4 c-104 3 -116 5 -139 27 -14 14 -31 39 -38 58 -15 42 -38 44 -38 2 0
-34 13 -64 42 -96 20 -21 20 -21 -1 -69 -24 -54 -27 -46 58 -136 l45 -48 -46
0 c-42 0 -52 5 -129 70 -95 81 -142 96 -87 29 18 -22 44 -54 57 -70 l24 -29
-119 0 -120 0 -69 70 c-64 64 -73 70 -111 70 l-42 0 15 48 c19 61 12 163 -15
224 -40 90 -149 170 -251 184 -42 5 -51 4 -51 -9 0 -9 17 -19 46 -26 140 -35
224 -139 224 -275 0 -64 -30 -147 -63 -175 -30 -25 -18 -31 61 -31 72 0 80 -2
115 -31 20 -17 37 -35 37 -40 0 -6 -137 -8 -352 -7 l-353 3 -3 133 -3 132
-107 0 -107 0 225 223 c242 239 276 264 404 293 94 21 244 12 329 -20z m-803
-669 c0 -89 -5 -120 -40 -240 -21 -76 -51 -159 -65 -183 -79 -135 -272 -147
-377 -24 -55 63 -70 140 -47 225 9 31 42 71 152 182 l141 143 118 0 118 0 0
-103z m1822 -59 c58 -25 156 -124 192 -195 120 -238 159 -664 90 -1001 -41
-201 -158 -478 -285 -672 -131 -201 -371 -457 -594 -634 -104 -82 -370 -266
-461 -317 l-42 -23 -125 79 c-271 170 -418 286 -628 495 -222 221 -329 363
-449 594 -170 325 -238 680 -199 1034 11 108 31 212 55 292 l16 53 29 -59 c28
-59 28 -59 14 -129 -14 -69 -36 -228 -32 -232 1 -1 96 -45 211 -98 l209 -97
25 25 25 25 -122 160 c-66 87 -121 161 -121 163 0 2 29 2 65 1 54 -3 68 -7 79
-25 8 -12 46 -77 85 -144 l71 -121 30 11 c36 13 36 16 20 276 l-11 166 44 135
43 135 679 3 679 2 36 34 c95 91 247 117 372 64z"/>
<path d="M1350 3738 c0 -11 18 -17 70 -21 84 -7 156 -37 249 -106 36 -26 78
-56 94 -66 l27 -17 0 38 c0 38 -2 40 -77 86 -128 77 -167 91 -270 96 -77 4
-93 2 -93 -10z"/>
<path d="M1950 3500 c0 -48 15 -52 53 -12 38 39 34 52 -13 52 l-40 0 0 -40z"/>
<path d="M2151 3492 c-13 -25 8 -56 35 -50 29 5 27 62 -3 66 -13 2 -26 -4 -32
-16z"/>
<path d="M637 3083 c-179 -280 -199 -315 -188 -326 14 -14 4 -25 150 174 123
170 146 219 101 219 -14 0 -34 -21 -63 -67z"/>
<path d="M2433 2990 c-60 -12 -118 -45 -150 -85 l-28 -35 -376 0 -375 0 -250
-327 c-138 -181 -253 -333 -256 -338 -3 -6 4 -22 16 -38 l22 -27 179 80 c98
44 180 78 182 76 2 -2 -2 -30 -9 -62 l-13 -59 -157 -49 -156 -49 5 -34 c7 -40
1 -41 -74 -7 -42 19 -81 28 -138 31 -82 5 -122 -4 -229 -51 l-39 -17 5 38 6
39 -199 66 -199 66 0 -86 c0 -48 4 -92 8 -99 4 -6 25 -14 47 -19 22 -4 74 -20
115 -37 108 -43 194 -42 310 4 112 44 189 46 273 6 112 -51 241 -56 330 -12
40 20 40 20 34 -13 -5 -27 -4 -28 24 -24 29 4 30 3 23 -24 -4 -16 -7 -29 -8
-30 -1 0 -36 -15 -78 -32 -105 -43 -180 -44 -285 -2 -130 52 -207 51 -350 -6
-89 -35 -174 -33 -263 6 -77 34 -154 41 -148 14 3 -14 41 -30 188 -80 69 -24
177 -14 272 25 103 42 164 42 266 -1 68 -28 88 -32 172 -32 79 -1 104 3 148
23 29 13 55 21 58 18 3 -3 0 -31 -6 -62 -12 -56 -13 -57 -68 -83 -84 -39 -171
-37 -279 6 -114 45 -203 45 -311 1 -104 -42 -170 -47 -247 -20 -33 12 -80 28
-104 36 l-43 15 6 -25 c4 -14 27 -73 52 -132 142 -333 390 -643 736 -920 139
-111 427 -303 455 -303 15 0 324 206 414 276 374 290 641 628 789 1002 18 45
30 85 26 89 -6 7 -29 0 -128 -36 -83 -30 -145 -27 -236 11 -69 29 -87 32 -177
32 -91 0 -107 -3 -180 -33 -70 -29 -87 -33 -145 -29 -43 3 -82 14 -116 31
l-50 25 -23 104 c-12 57 -25 112 -28 122 -5 17 -1 18 27 13 30 -6 32 -5 27 16
-3 12 -11 48 -18 80 l-12 58 94 95 c51 52 97 94 100 94 4 0 35 -21 69 -46 l63
-46 101 101 102 102 98 -101 97 -100 59 45 c32 25 63 45 68 45 6 0 71 -64 145
-142 75 -79 139 -139 144 -135 13 14 9 404 -6 492 -42 261 -122 430 -230 484
-45 23 -114 31 -168 21z m-196 -320 c5 -27 9 -30 44 -30 46 0 49 -11 12 -38
-25 -18 -26 -22 -16 -56 9 -28 8 -36 -2 -36 -7 0 -18 7 -25 15 -7 8 -20 15
-30 15 -10 0 -23 -7 -30 -15 -7 -8 -18 -15 -25 -15 -10 0 -11 8 -2 36 10 34 9
38 -16 56 -37 27 -34 38 12 38 35 0 39 3 45 30 3 17 10 30 16 30 6 0 13 -13
17 -30z m-647 -345 c28 -154 53 -289 57 -299 5 -17 1 -18 -26 -13 -28 6 -31 4
-27 -11 3 -9 23 -102 46 -207 22 -104 42 -198 44 -208 4 -17 0 -18 -30 -13
-19 4 -34 3 -34 -1 0 -4 21 -108 46 -231 26 -122 45 -224 42 -227 -3 -3 -44
11 -92 32 l-87 36 -91 -37 c-50 -20 -92 -35 -94 -33 -3 3 70 368 90 450 4 17
0 18 -30 13 -20 -4 -34 -3 -34 3 0 10 75 372 86 418 6 21 4 22 -25 17 -24 -5
-30 -3 -27 7 3 8 26 127 51 264 66 361 66 364 76 340 4 -11 31 -146 59 -300z
m316 223 c8 -29 15 -34 49 -38 l40 -5 -32 -23 c-31 -22 -31 -23 -18 -56 18
-43 10 -50 -26 -24 -26 20 -29 20 -53 4 -38 -24 -46 -21 -35 17 9 29 7 34 -23
60 l-32 27 41 0 c38 0 42 3 53 35 14 44 24 44 36 3z m664 -3 c11 -32 15 -35
53 -35 l41 0 -33 -28 c-32 -27 -34 -30 -23 -60 13 -36 4 -40 -34 -16 -24 16
-27 16 -55 -5 -32 -24 -37 -14 -19 33 8 22 5 28 -23 48 l-32 23 40 5 c34 4 41
9 49 38 12 41 22 41 36 -3z m-1576 -946 c79 -35 176 -36 285 -3 21 6 23 5 18
-17 -3 -13 -8 -39 -12 -58 l-7 -34 37 6 c34 6 37 4 32 -16 -37 -159 -99 -469
-95 -473 3 -3 47 15 97 40 50 25 92 46 93 46 2 0 2 -26 0 -59 l-4 -59 -44 -6
c-25 -3 -77 -20 -116 -37 -92 -40 -175 -43 -263 -8 l-60 24 -3 313 c-1 171 -5
312 -9 312 -3 0 -15 -7 -25 -17 -17 -15 -18 -38 -18 -320 0 -166 -2 -303 -4
-303 -2 0 -11 -3 -20 -6 -14 -6 -16 26 -16 314 l0 320 38 31 c20 17 40 30 43
31 4 0 27 -9 53 -21z m1149 -10 l37 -30 0 -326 c0 -325 0 -326 -20 -308 -19
17 -20 31 -20 321 0 293 -1 304 -20 314 -20 11 -20 8 -20 -300 l0 -310 -57
-26 c-83 -37 -177 -38 -256 -2 -31 15 -84 32 -117 39 l-59 11 -7 55 c-3 29 -4
56 -1 59 3 3 46 -16 97 -41 51 -25 94 -44 97 -41 3 3 -18 113 -46 244 -28 131
-51 241 -51 245 0 3 16 3 35 0 39 -6 41 -1 24 60 -6 22 -9 41 -7 43 2 2 26 -4
53 -12 67 -21 185 -14 245 14 58 26 50 27 93 -9z m-595 -467 c9 -6 15 -72 22
-248 5 -131 10 -249 10 -261 0 -21 -5 -23 -56 -23 l-55 0 5 103 c3 56 8 174
12 262 5 155 10 175 39 175 6 0 16 -4 23 -8z m-120 -219 c-2 -10 -14 -19 -28
-21 -14 -2 -56 -18 -95 -35 -62 -28 -81 -31 -165 -32 -83 0 -104 4 -163 29
-37 15 -67 32 -67 37 0 20 30 19 72 -2 59 -31 203 -38 268 -14 123 47 146 54
163 55 12 0 17 -6 15 -17z m325 -15 c64 -29 82 -33 162 -33 72 0 100 5 139 23
45 20 86 22 86 3 0 -4 -33 -21 -72 -37 -62 -25 -86 -29 -163 -29 -79 1 -99 5
-162 33 -39 18 -83 32 -97 32 -19 0 -26 5 -26 20 0 30 49 26 133 -12z"/>
<path d="M990 1451 c0 -27 5 -32 43 -42 47 -14 157 -14 202 -1 23 6 31 15 33
37 3 23 1 27 -15 20 -76 -31 -173 -31 -231 -1 l-32 17 0 -30z"/>
<path d="M990 1266 c0 -18 8 -27 31 -35 48 -17 120 -23 169 -14 39 7 45 12 48
36 3 25 2 26 -23 17 -39 -15 -131 -12 -172 5 -48 20 -53 19 -53 -9z"/>
<path d="M992 1083 c2 -23 11 -29 48 -40 25 -8 70 -12 100 -11 47 3 55 6 58
24 3 20 -1 22 -60 22 -35 0 -80 7 -102 16 -49 20 -48 21 -44 -11z"/>
<path d="M2040 1470 c-8 -5 -39 -15 -69 -21 -52 -11 -121 -4 -173 16 -14 6
-18 2 -18 -18 0 -21 7 -26 44 -36 58 -14 121 -14 185 1 47 10 51 14 51 40 0
32 0 31 -20 18z"/>
<path d="M2026 1283 c-39 -20 -145 -29 -186 -15 -30 11 -31 11 -28 -16 3 -24
8 -28 53 -34 49 -7 158 6 184 21 7 5 11 20 9 34 -3 25 -4 25 -32 10z"/>
<path d="M2015 1095 c-16 -8 -60 -14 -97 -15 -61 0 -68 -2 -68 -20 0 -25 35
-35 100 -26 80 11 110 25 110 52 0 27 -3 28 -45 9z"/>
<path d="M900 2833 c0 -21 -7 -135 -15 -253 -8 -118 -15 -240 -15 -270 0 -53
2 -56 30 -67 l30 -11 186 311 c103 172 189 315 191 320 2 4 -88 7 -201 7
l-206 0 0 -37z"/>
<path d="M1860 1990 c0 -11 5 -20 10 -20 6 0 10 -27 10 -60 0 -53 2 -60 20
-60 18 0 20 7 20 80 l0 80 -30 0 c-23 0 -30 -4 -30 -20z"/>
<path d="M2066 1994 c-19 -18 -19 -20 -6 -44 7 -13 7 -21 0 -25 -15 -9 -12
-42 6 -59 22 -22 60 -20 85 5 19 19 19 22 5 43 -11 17 -12 26 -4 34 8 8 8 18
0 37 -14 29 -61 35 -86 9z m54 -24 c0 -5 -4 -10 -10 -10 -5 0 -10 5 -10 10 0
6 5 10 10 10 6 0 10 -4 10 -10z m0 -70 c0 -5 -7 -10 -15 -10 -8 0 -15 5 -15
10 0 6 7 10 15 10 8 0 15 -4 15 -10z"/>
<path d="M2306 1972 c-29 -42 -34 -93 -12 -111 8 -7 32 -11 52 -9 30 2 42 9
54 30 17 32 8 55 -29 74 -19 10 -20 13 -6 24 22 18 19 30 -9 30 -16 0 -32 -12
-50 -38z m52 -69 c-2 -10 -10 -18 -18 -18 -8 0 -16 8 -18 18 -2 12 3 17 18 17
15 0 20 -5 18 -17z"/>
<path d="M2526 1991 c-14 -15 -15 -24 -7 -40 7 -13 8 -22 1 -26 -5 -3 -10 -15
-10 -25 0 -51 77 -69 106 -25 13 19 14 28 5 39 -7 8 -9 25 -5 40 4 16 1 32 -6
41 -17 21 -64 19 -84 -4z m54 -21 c0 -5 -4 -10 -10 -10 -5 0 -10 5 -10 10 0 6
5 10 10 10 6 0 10 -4 10 -10z m0 -70 c0 -5 -4 -10 -9 -10 -6 0 -13 5 -16 10
-3 6 1 10 9 10 9 0 16 -4 16 -10z"/>
<path d="M3770 3029 c-85 -14 -193 -71 -253 -132 -101 -103 -147 -238 -147
-433 0 -293 129 -487 365 -549 76 -19 243 -20 318 0 138 36 237 113 302 236
47 89 65 177 65 320 0 194 -44 323 -147 427 -114 115 -302 164 -503 131z m216
-98 c118 -53 160 -198 151 -516 -5 -192 -16 -251 -63 -332 -52 -90 -183 -125
-279 -76 -92 48 -129 135 -145 348 -10 137 4 332 30 417 35 114 112 178 215
178 28 0 68 -9 91 -19z"/>
<path d="M9088 3029 c-74 -11 -161 -53 -200 -98 -92 -105 -103 -291 -25 -408
42 -62 98 -99 252 -164 154 -64 209 -107 223 -175 25 -117 -44 -205 -160 -204
-100 1 -160 43 -256 177 -57 81 -73 98 -92 95 -13 -1 -26 -4 -28 -7 -6 -5 19
-305 27 -327 6 -16 11 -15 50 12 l44 29 36 -18 c95 -49 309 -55 404 -13 145
64 214 200 187 368 -25 155 -86 212 -331 309 -120 47 -170 81 -193 130 -33 68
-12 156 47 199 22 16 43 21 90 21 89 0 135 -29 223 -140 40 -50 78 -91 86 -92
35 -7 38 10 31 149 -3 75 -9 142 -13 148 -4 7 -18 6 -44 -5 -34 -14 -45 -15
-100 -1 -82 19 -188 26 -258 15z"/>
<path d="M9725 2829 c-124 -107 -140 -125 -143 -155 l-3 -34 55 0 55 0 3 -292
3 -293 28 -50 c15 -27 42 -60 60 -72 42 -29 128 -46 192 -38 99 12 225 93 225
145 0 28 -12 31 -65 15 -100 -31 -162 -12 -189 55 -13 33 -16 83 -16 285 l0
245 120 0 120 0 0 29 c0 16 3 36 6 45 5 14 -9 16 -120 16 l-126 0 0 110 0 110
-32 -1 c-27 0 -58 -21 -173 -120z"/>
<path d="M11105 2828 c-122 -106 -140 -126 -143 -155 l-3 -33 55 0 56 0 0
-273 c0 -204 4 -286 14 -320 32 -107 100 -151 232 -151 72 0 89 4 147 32 83
41 130 94 115 128 -10 22 -12 22 -40 8 -16 -8 -51 -18 -78 -21 -69 -8 -108 10
-131 61 -16 36 -19 69 -19 288 l0 247 118 3 117 3 6 43 5 42 -123 0 -123 0 0
110 0 110 -32 0 c-28 -1 -57 -21 -173 -122z"/>
<path d="M6648 2800 c-26 -26 -30 -37 -25 -68 l5 -38 -72 25 c-62 22 -88 25
-211 26 -134 0 -143 -1 -202 -29 -37 -17 -80 -47 -102 -72 -72 -77 -90 -208
-43 -300 23 -46 42 -64 100 -97 l42 -24 -39 -12 c-81 -24 -131 -87 -131 -166
0 -66 30 -118 83 -144 24 -12 51 -21 61 -21 9 0 14 -4 11 -10 -3 -5 -16 -10
-28 -10 -30 0 -118 -43 -140 -68 -27 -30 -39 -96 -27 -141 28 -107 185 -160
433 -148 133 7 195 20 273 60 109 55 153 127 154 250 0 117 -35 182 -125 230
-36 20 -60 22 -263 27 -221 5 -224 5 -243 29 -22 27 -18 55 11 85 16 17 35 19
152 20 121 1 138 3 188 27 113 53 159 117 160 222 0 70 -25 125 -75 163 -20
15 -34 29 -31 31 2 2 28 -3 57 -11 84 -25 135 -21 170 13 24 25 29 38 29 79 0
69 -31 102 -95 102 -39 0 -52 -5 -77 -30z m-269 -145 c43 -22 56 -65 56 -185
-1 -148 -25 -190 -113 -190 -49 0 -86 28 -102 76 -18 55 -9 233 13 268 30 45
93 59 146 31z m167 -824 c64 -39 66 -142 3 -195 -65 -55 -250 -76 -334 -37
-65 30 -80 53 -80 126 0 57 3 67 29 94 l30 31 160 0 c141 0 165 -2 192 -19z"/>
<path d="M4603 2703 c-73 -24 -133 -50 -133 -56 0 -7 18 -39 40 -72 l40 -60 0
-258 0 -259 -40 -15 c-31 -12 -40 -21 -40 -40 l0 -23 230 0 c222 0 230 1 240
21 7 11 9 23 6 26 -3 3 -38 13 -78 22 l-73 17 -3 233 c-2 224 -2 233 19 263
21 29 94 88 109 88 4 0 10 -13 13 -29 3 -16 17 -41 30 -57 20 -23 34 -28 83
-32 50 -3 63 -1 88 19 82 65 65 205 -30 245 -107 45 -240 -17 -294 -138 -9
-21 -19 -35 -23 -32 -3 3 -3 46 0 95 l6 89 -29 -1 c-16 0 -89 -21 -161 -46z"/>
<path d="M5477 2740 c-206 -52 -332 -263 -299 -502 30 -210 152 -326 352 -336
160 -8 262 33 328 132 32 48 32 50 15 68 -17 17 -20 16 -76 -12 -73 -36 -134
-46 -202 -31 -100 23 -173 118 -178 234 l-2 52 237 3 238 2 6 26 c11 44 -2
167 -23 214 -25 57 -69 102 -130 131 -37 18 -68 24 -138 26 -49 1 -107 -2
-128 -7z m137 -80 c14 -5 35 -24 46 -42 21 -35 36 -124 26 -163 l-6 -25 -135
0 -134 0 5 33 c28 158 103 233 198 197z"/>
<path d="M7053 2735 c-127 -28 -201 -87 -257 -205 -30 -63 -31 -69 -31 -205 0
-123 3 -147 23 -197 32 -80 99 -150 180 -190 66 -33 69 -33 207 -33 138 0 141
0 207 33 82 40 149 111 179 190 27 72 37 238 19 321 -25 115 -93 207 -188 255
-83 42 -227 55 -339 31z m195 -95 c47 -29 72 -92 85 -216 13 -128 -1 -289 -31
-357 -50 -113 -193 -117 -249 -7 -51 99 -53 405 -4 516 24 53 70 84 126 84 23
0 54 -9 73 -20z"/>
<path d="M7756 2706 c-72 -23 -131 -47 -134 -54 -2 -6 15 -42 37 -80 l41 -69
-2 -249 -3 -249 -37 -20 c-27 -14 -38 -27 -38 -43 l0 -22 206 2 c203 3 207 3
215 25 7 20 3 24 -46 39 l-55 18 0 256 0 256 41 26 c86 56 181 42 224 -32 19
-32 20 -52 20 -270 l0 -235 -37 -20 c-27 -14 -38 -27 -38 -42 l0 -23 205 0
c192 0 205 1 215 19 15 29 15 28 -44 47 l-55 17 -3 281 c-3 268 -4 283 -26
331 -30 65 -47 83 -107 111 -59 28 -137 31 -213 9 -57 -17 -140 -78 -161 -118
-26 -48 -34 -31 -27 53 l7 80 -28 -1 c-15 -1 -86 -20 -157 -43z"/>
<path d="M10455 2729 c-113 -40 -212 -121 -199 -163 10 -31 9 -31 71 -7 35 14
89 25 138 28 70 4 86 2 125 -19 59 -30 83 -73 84 -150 l1 -59 -130 -2 c-112
-2 -137 -6 -182 -26 -100 -45 -151 -131 -140 -237 13 -130 88 -194 224 -194
99 0 141 15 191 67 24 25 44 43 46 41 1 -1 9 -19 18 -39 22 -49 68 -69 157
-69 38 0 83 5 98 12 50 21 83 49 83 69 0 15 -7 19 -38 19 -78 0 -76 -4 -83
292 -6 284 -8 300 -65 367 -15 18 -50 44 -78 58 -43 22 -67 27 -156 30 -88 3
-115 0 -165 -18z m215 -554 c0 -101 -1 -105 -26 -121 -33 -22 -105 -22 -139 0
-35 23 -58 79 -50 120 16 74 62 105 158 106 l57 0 0 -105z"/>
<path d="M11870 2736 c-209 -61 -327 -264 -291 -503 31 -206 153 -321 351
-331 160 -8 262 33 328 132 33 49 33 50 13 69 -19 19 -19 19 -48 0 -37 -26
-118 -53 -160 -53 -138 0 -243 105 -247 245 l-1 50 240 5 240 5 0 90 c0 144
-48 231 -154 278 -57 26 -204 33 -271 13z m175 -96 c29 -27 45 -83 45 -154 l0
-56 -139 0 -138 0 8 48 c13 69 27 107 51 138 44 55 127 67 173 24z"/>
<path d="M5434 1601 c-39 -17 -64 -60 -64 -112 0 -141 199 -154 226 -14 15 81
-85 158 -162 126z"/>
<path d="M8503 1590 c-40 -24 -56 -53 -56 -101 0 -114 146 -154 211 -59 42 62
17 136 -55 166 -43 19 -62 18 -100 -6z"/>
<path d="M3340 1496 c0 -8 -3 -21 -6 -29 -4 -12 12 -21 65 -38 l71 -23 0 -351
c0 -388 5 -429 62 -518 54 -84 146 -132 281 -146 123 -12 218 2 303 44 84 41
125 84 168 175 l31 65 3 366 3 366 62 18 c76 22 81 27 73 59 l-6 26 -185 0
c-102 0 -185 -3 -185 -7 0 -5 -3 -18 -6 -30 -5 -19 2 -24 65 -44 l71 -23 0
-331 c0 -357 -5 -399 -55 -472 -89 -132 -327 -154 -432 -40 -74 80 -78 104
-78 497 l0 345 62 20 c74 24 77 27 69 60 l-6 25 -215 0 c-179 0 -215 -2 -215
-14z"/>
<path d="M8855 1323 c-98 -108 -115 -132 -115 -160 0 -33 0 -33 49 -33 l49 0
4 -297 c3 -279 4 -301 24 -344 28 -60 69 -88 149 -100 77 -12 149 0 210 35 59
35 79 60 71 91 -6 25 -7 25 -38 9 -48 -25 -147 -30 -185 -10 -58 29 -64 66
-61 361 l3 260 120 3 c86 2 125 -1 137 -10 9 -7 83 -179 163 -381 l147 -369
-17 -46 c-27 -75 -90 -176 -135 -215 -48 -44 -74 -49 -60 -12 39 101 -99 178
-172 96 -49 -55 -29 -149 41 -186 36 -18 118 -20 175 -3 60 18 142 105 196
208 24 46 111 269 194 495 l151 410 42 20 c34 16 42 25 43 48 l0 27 -154 0
c-151 0 -154 0 -160 -22 -7 -28 -3 -32 62 -53 28 -9 52 -20 52 -24 0 -4 -25
-81 -55 -171 -31 -91 -69 -214 -86 -275 -32 -113 -49 -149 -49 -104 0 50 -76
278 -185 551 -5 13 2 19 37 28 23 6 50 13 59 16 11 3 15 12 11 29 l-4 25 -142
2 c-77 1 -203 0 -278 -1 l-138 -4 0 117 c0 109 -1 116 -20 116 -12 0 -62 -47
-135 -127z"/>
<path d="M4585 1226 c-16 -7 -63 -25 -102 -40 -51 -20 -73 -33 -73 -45 0 -9
20 -37 45 -61 l45 -44 -2 -276 -3 -275 -42 -15 c-37 -12 -43 -18 -43 -42 l0
-28 180 0 179 0 16 29 15 29 -53 12 c-95 23 -87 -3 -87 289 0 235 2 259 18
274 30 27 111 58 165 64 43 4 58 1 87 -19 59 -40 60 -47 57 -332 l-2 -259 -35
-12 c-29 -10 -36 -17 -38 -43 l-3 -32 179 0 179 0 12 27 c15 32 10 36 -64 52
l-54 12 -3 297 c-3 284 -4 299 -25 338 -45 85 -114 119 -223 112 -82 -6 -155
-43 -211 -107 l-39 -44 0 77 c0 72 -1 76 -22 75 -13 0 -36 -6 -53 -13z"/>
<path d="M5418 1198 c-60 -22 -108 -46 -108 -53 0 -7 20 -35 45 -63 l45 -50
-2 -273 -3 -272 -43 -15 c-38 -12 -43 -17 -40 -41 l3 -26 177 -3 177 -2 16 29
15 30 -37 10 c-21 5 -50 13 -65 17 l-28 6 0 374 0 374 -22 -1 c-13 0 -71 -18
-130 -41z"/>
<path d="M6688 1227 c-106 -30 -196 -117 -241 -231 -28 -73 -35 -249 -13 -336
51 -198 198 -295 408 -269 81 10 139 37 196 92 42 41 49 60 34 85 -7 10 -24 5
-78 -20 -141 -66 -284 -44 -352 54 -33 49 -59 129 -64 198 l-3 45 256 3 256 2
6 50 c6 48 -4 134 -19 175 -19 50 -65 103 -116 130 -45 24 -66 29 -138 32 -49
2 -105 -3 -132 -10z m168 -86 c42 -26 64 -77 64 -150 l0 -61 -170 0 c-93 0
-170 4 -170 8 0 27 33 112 55 142 56 75 153 102 221 61z"/>
<path d="M7228 1198 c-60 -23 -108 -45 -108 -50 0 -6 20 -34 45 -62 l45 -53 0
-272 0 -271 -40 -16 c-34 -14 -40 -21 -40 -45 l0 -29 195 0 194 0 16 29 15 29
-48 10 c-26 6 -64 14 -84 17 l-38 7 0 243 0 243 49 54 c52 56 111 98 111 78 0
-27 33 -78 56 -89 97 -44 188 41 154 144 -18 56 -60 77 -142 73 -98 -5 -132
-31 -225 -174 -10 -15 -12 -1 -6 79 l6 97 -24 -1 c-13 0 -72 -19 -131 -41z"/>
<path d="M7928 1226 c-119 -43 -175 -146 -150 -278 19 -104 76 -158 215 -204
164 -54 202 -86 202 -170 0 -45 -4 -58 -27 -81 -22 -21 -39 -27 -86 -31 -33
-2 -77 1 -97 8 -51 17 -108 71 -146 139 -18 31 -33 57 -34 59 -1 1 -10 -1 -20
-4 -16 -7 -17 -19 -12 -137 3 -71 8 -131 10 -134 3 -2 22 4 42 14 36 19 38 19
93 0 72 -24 207 -25 271 -2 105 37 150 103 151 218 0 142 -59 208 -241 267
-107 34 -154 62 -174 100 -52 101 44 204 158 171 57 -17 99 -51 144 -116 58
-84 68 -73 66 69 -1 65 -4 120 -6 122 -2 3 -22 -2 -45 -10 -35 -13 -47 -13
-88 0 -59 17 -177 18 -226 0z"/>
<path d="M8498 1198 c-60 -22 -108 -45 -108 -51 0 -5 20 -34 45 -63 l45 -53
-2 -272 -3 -272 -42 -15 c-38 -12 -43 -17 -43 -43 l0 -29 180 0 179 0 16 30
15 29 -37 10 c-21 5 -50 13 -65 17 l-28 6 0 374 0 374 -22 -1 c-13 0 -71 -18
-130 -41z"/>
<path d="M5627 1198 c-4 -12 -5 -23 -4 -24 1 -1 20 -13 42 -26 39 -25 44 -34
189 -387 l149 -361 47 0 46 0 144 366 144 366 44 19 c32 14 42 23 38 35 -3 9
-6 20 -6 25 0 5 -67 9 -154 9 l-154 0 -4 -25 c-5 -22 0 -26 58 -45 l63 -21
-23 -62 c-69 -183 -128 -350 -147 -416 l-22 -74 -18 73 c-10 40 -55 163 -99
274 -44 111 -80 205 -80 208 0 4 25 12 55 19 52 11 56 14 53 38 l-3 26 -176 3
c-175 2 -177 2 -182 -20z"/>
</g>
</svg>
